ISO-10303-21;
HEADER;
/* Generated by software containing ST-Developer
 * from STEP Tools, Inc. (www.steptools.com) 
 */
/* OPTION: using custom renumber hook */

FILE_DESCRIPTION(
/* description */ ('STEP AP242 Edition 2',
'CAx-IF Rec.Pracs.---Representation and Presentation of Product Manufa
cturing Information (PMI)---4.0---2014-10-13',
'CAx-IF Rec.Pracs.---3D Tessellated Geometry---0.4---2014-09-14','2;1',
'CAx-IF Rec.Pracs.---User Defined Attributes---1.5---2016-08-15'),
/* implementation_level */ '2;1');

FILE_NAME(
/* name */ 'Base Camera Mount',
/* time_stamp */ '2026-10-03T00:43:03Z',
/* author */ (''),
/* organization */ (''),
/* preprocessor_version */ 'ST-DEVELOPER v20',
/* originating_system */ 'ONSHAPE BY PTC INC, 1.221',
/* authorisation */ '  ');

FILE_SCHEMA (('AP242_MANAGED_MODEL_BASED_3D_ENGINEERING_MIM_LF { 1 0 10303 442 3 1 4 }'));
ENDSEC;

DATA;
#10=SHAPE_REPRESENTATION_RELATIONSHIP('','',#748,#11);
#11=ADVANCED_BREP_SHAPE_REPRESENTATION('',(#746),#1226);
#12=CYLINDRICAL_SURFACE('',#789,0.000999999999999962);
#13=CYLINDRICAL_SURFACE('',#792,0.000999999999999962);
#14=CYLINDRICAL_SURFACE('',#795,0.001);
#15=CYLINDRICAL_SURFACE('',#798,0.001);
#16=CYLINDRICAL_SURFACE('',#805,0.000762);
#17=CYLINDRICAL_SURFACE('',#806,0.000762);
#18=CYLINDRICAL_SURFACE('',#807,0.000762);
#19=CYLINDRICAL_SURFACE('',#808,0.000762);
#20=CYLINDRICAL_SURFACE('',#810,0.000762);
#21=CYLINDRICAL_SURFACE('',#811,0.000762);
#22=CYLINDRICAL_SURFACE('',#812,0.000762);
#23=CYLINDRICAL_SURFACE('',#813,0.000762);
#24=CYLINDRICAL_SURFACE('',#814,0.000762);
#25=CYLINDRICAL_SURFACE('',#815,0.000762);
#26=CYLINDRICAL_SURFACE('',#816,0.000762);
#27=LINE('',#1028,#94);
#28=LINE('',#1031,#95);
#29=LINE('',#1033,#96);
#30=LINE('',#1035,#97);
#31=LINE('',#1045,#98);
#32=LINE('',#1048,#99);
#33=LINE('',#1050,#100);
#34=LINE('',#1052,#101);
#35=LINE('',#1056,#102);
#36=LINE('',#1059,#103);
#37=LINE('',#1061,#104);
#38=LINE('',#1063,#105);
#39=LINE('',#1065,#106);
#40=LINE('',#1071,#107);
#41=LINE('',#1075,#108);
#42=LINE('',#1079,#109);
#43=LINE('',#1083,#110);
#44=LINE('',#1089,#111);
#45=LINE('',#1093,#112);
#46=LINE('',#1097,#113);
#47=LINE('',#1101,#114);
#48=LINE('',#1105,#115);
#49=LINE('',#1109,#116);
#50=LINE('',#1112,#117);
#51=LINE('',#1114,#118);
#52=LINE('',#1116,#119);
#53=LINE('',#1118,#120);
#54=LINE('',#1120,#121);
#55=LINE('',#1122,#122);
#56=LINE('',#1124,#123);
#57=LINE('',#1126,#124);
#58=LINE('',#1128,#125);
#59=LINE('',#1130,#126);
#60=LINE('',#1132,#127);
#61=LINE('',#1134,#128);
#62=LINE('',#1136,#129);
#63=LINE('',#1138,#130);
#64=LINE('',#1140,#131);
#65=LINE('',#1142,#132);
#66=LINE('',#1144,#133);
#67=LINE('',#1146,#134);
#68=LINE('',#1148,#135);
#69=LINE('',#1150,#136);
#70=LINE('',#1152,#137);
#71=LINE('',#1154,#138);
#72=LINE('',#1156,#139);
#73=LINE('',#1158,#140);
#74=LINE('',#1160,#141);
#75=LINE('',#1162,#142);
#76=LINE('',#1164,#143);
#77=LINE('',#1166,#144);
#78=LINE('',#1168,#145);
#79=LINE('',#1170,#146);
#80=LINE('',#1172,#147);
#81=LINE('',#1174,#148);
#82=LINE('',#1176,#149);
#83=LINE('',#1178,#150);
#84=LINE('',#1179,#151);
#85=LINE('',#1201,#152);
#86=LINE('',#1202,#153);
#87=LINE('',#1204,#154);
#88=LINE('',#1206,#155);
#89=LINE('',#1207,#156);
#90=LINE('',#1209,#157);
#91=LINE('',#1210,#158);
#92=LINE('',#1216,#159);
#93=LINE('',#1217,#160);
#94=VECTOR('',#827,1.);
#95=VECTOR('',#828,1.);
#96=VECTOR('',#829,1.);
#97=VECTOR('',#830,1.);
#98=VECTOR('',#841,1.);
#99=VECTOR('',#842,1.);
#100=VECTOR('',#843,1.);
#101=VECTOR('',#844,1.);
#102=VECTOR('',#849,1.);
#103=VECTOR('',#850,1.);
#104=VECTOR('',#851,1.);
#105=VECTOR('',#852,1.);
#106=VECTOR('',#855,1.);
#107=VECTOR('',#860,1.);
#108=VECTOR('',#865,1.);
#109=VECTOR('',#868,1.);
#110=VECTOR('',#871,1.);
#111=VECTOR('',#878,1.);
#112=VECTOR('',#881,1.);
#113=VECTOR('',#884,1.);
#114=VECTOR('',#887,1.);
#115=VECTOR('',#892,1.);
#116=VECTOR('',#897,1.);
#117=VECTOR('',#898,1.);
#118=VECTOR('',#899,1.);
#119=VECTOR('',#900,1.);
#120=VECTOR('',#903,1.);
#121=VECTOR('',#904,1.);
#122=VECTOR('',#905,1.);
#123=VECTOR('',#908,1.);
#124=VECTOR('',#909,1.);
#125=VECTOR('',#910,1.);
#126=VECTOR('',#913,1.);
#127=VECTOR('',#914,1.);
#128=VECTOR('',#915,1.);
#129=VECTOR('',#918,1.);
#130=VECTOR('',#919,1.);
#131=VECTOR('',#920,1.);
#132=VECTOR('',#923,1.);
#133=VECTOR('',#924,1.);
#134=VECTOR('',#925,1.);
#135=VECTOR('',#928,1.);
#136=VECTOR('',#929,1.);
#137=VECTOR('',#930,1.);
#138=VECTOR('',#933,1.);
#139=VECTOR('',#934,1.);
#140=VECTOR('',#935,1.);
#141=VECTOR('',#938,1.);
#142=VECTOR('',#939,1.);
#143=VECTOR('',#940,1.);
#144=VECTOR('',#943,1.);
#145=VECTOR('',#944,1.);
#146=VECTOR('',#945,1.);
#147=VECTOR('',#948,1.);
#148=VECTOR('',#949,1.);
#149=VECTOR('',#950,1.);
#150=VECTOR('',#953,1.);
#151=VECTOR('',#954,1.);
#152=VECTOR('',#981,1.);
#153=VECTOR('',#982,1.);
#154=VECTOR('',#985,1.);
#155=VECTOR('',#988,1.);
#156=VECTOR('',#989,1.);
#157=VECTOR('',#992,1.);
#158=VECTOR('',#993,1.);
#159=VECTOR('',#1004,1.);
#160=VECTOR('',#1005,1.);
#161=ORIENTED_EDGE('',*,*,#355,.T.);
#162=ORIENTED_EDGE('',*,*,#356,.T.);
#163=ORIENTED_EDGE('',*,*,#357,.T.);
#164=ORIENTED_EDGE('',*,*,#358,.F.);
#165=ORIENTED_EDGE('',*,*,#359,.T.);
#166=ORIENTED_EDGE('',*,*,#360,.T.);
#167=ORIENTED_EDGE('',*,*,#361,.T.);
#168=ORIENTED_EDGE('',*,*,#362,.T.);
#169=ORIENTED_EDGE('',*,*,#363,.T.);
#170=ORIENTED_EDGE('',*,*,#364,.F.);
#171=ORIENTED_EDGE('',*,*,#365,.F.);
#172=ORIENTED_EDGE('',*,*,#366,.F.);
#173=ORIENTED_EDGE('',*,*,#367,.T.);
#174=ORIENTED_EDGE('',*,*,#368,.T.);
#175=ORIENTED_EDGE('',*,*,#369,.T.);
#176=ORIENTED_EDGE('',*,*,#370,.T.);
#177=ORIENTED_EDGE('',*,*,#371,.F.);
#178=ORIENTED_EDGE('',*,*,#372,.T.);
#179=ORIENTED_EDGE('',*,*,#373,.T.);
#180=ORIENTED_EDGE('',*,*,#374,.F.);
#181=ORIENTED_EDGE('',*,*,#375,.F.);
#182=ORIENTED_EDGE('',*,*,#376,.T.);
#183=ORIENTED_EDGE('',*,*,#358,.T.);
#184=ORIENTED_EDGE('',*,*,#377,.T.);
#185=ORIENTED_EDGE('',*,*,#378,.T.);
#186=ORIENTED_EDGE('',*,*,#379,.T.);
#187=ORIENTED_EDGE('',*,*,#366,.T.);
#188=ORIENTED_EDGE('',*,*,#380,.T.);
#189=ORIENTED_EDGE('',*,*,#371,.T.);
#190=ORIENTED_EDGE('',*,*,#381,.F.);
#191=ORIENTED_EDGE('',*,*,#382,.T.);
#192=ORIENTED_EDGE('',*,*,#383,.T.);
#193=ORIENTED_EDGE('',*,*,#384,.T.);
#194=ORIENTED_EDGE('',*,*,#385,.T.);
#195=ORIENTED_EDGE('',*,*,#386,.T.);
#196=ORIENTED_EDGE('',*,*,#360,.F.);
#197=ORIENTED_EDGE('',*,*,#387,.T.);
#198=ORIENTED_EDGE('',*,*,#388,.T.);
#199=ORIENTED_EDGE('',*,*,#389,.T.);
#200=ORIENTED_EDGE('',*,*,#390,.F.);
#201=ORIENTED_EDGE('',*,*,#391,.T.);
#202=ORIENTED_EDGE('',*,*,#392,.F.);
#203=ORIENTED_EDGE('',*,*,#393,.T.);
#204=ORIENTED_EDGE('',*,*,#394,.T.);
#205=ORIENTED_EDGE('',*,*,#373,.F.);
#206=ORIENTED_EDGE('',*,*,#395,.T.);
#207=ORIENTED_EDGE('',*,*,#368,.F.);
#208=ORIENTED_EDGE('',*,*,#396,.T.);
#209=ORIENTED_EDGE('',*,*,#397,.F.);
#210=ORIENTED_EDGE('',*,*,#398,.T.);
#211=ORIENTED_EDGE('',*,*,#399,.T.);
#212=ORIENTED_EDGE('',*,*,#400,.F.);
#213=ORIENTED_EDGE('',*,*,#401,.F.);
#214=ORIENTED_EDGE('',*,*,#402,.T.);
#215=ORIENTED_EDGE('',*,*,#403,.T.);
#216=ORIENTED_EDGE('',*,*,#402,.F.);
#217=ORIENTED_EDGE('',*,*,#404,.F.);
#218=ORIENTED_EDGE('',*,*,#405,.T.);
#219=ORIENTED_EDGE('',*,*,#406,.T.);
#220=ORIENTED_EDGE('',*,*,#405,.F.);
#221=ORIENTED_EDGE('',*,*,#407,.F.);
#222=ORIENTED_EDGE('',*,*,#408,.T.);
#223=ORIENTED_EDGE('',*,*,#409,.T.);
#224=ORIENTED_EDGE('',*,*,#408,.F.);
#225=ORIENTED_EDGE('',*,*,#410,.F.);
#226=ORIENTED_EDGE('',*,*,#411,.T.);
#227=ORIENTED_EDGE('',*,*,#412,.T.);
#228=ORIENTED_EDGE('',*,*,#411,.F.);
#229=ORIENTED_EDGE('',*,*,#413,.F.);
#230=ORIENTED_EDGE('',*,*,#414,.T.);
#231=ORIENTED_EDGE('',*,*,#415,.T.);
#232=ORIENTED_EDGE('',*,*,#414,.F.);
#233=ORIENTED_EDGE('',*,*,#416,.F.);
#234=ORIENTED_EDGE('',*,*,#417,.T.);
#235=ORIENTED_EDGE('',*,*,#418,.T.);
#236=ORIENTED_EDGE('',*,*,#417,.F.);
#237=ORIENTED_EDGE('',*,*,#419,.F.);
#238=ORIENTED_EDGE('',*,*,#420,.T.);
#239=ORIENTED_EDGE('',*,*,#421,.T.);
#240=ORIENTED_EDGE('',*,*,#420,.F.);
#241=ORIENTED_EDGE('',*,*,#422,.F.);
#242=ORIENTED_EDGE('',*,*,#423,.T.);
#243=ORIENTED_EDGE('',*,*,#424,.T.);
#244=ORIENTED_EDGE('',*,*,#423,.F.);
#245=ORIENTED_EDGE('',*,*,#425,.F.);
#246=ORIENTED_EDGE('',*,*,#426,.T.);
#247=ORIENTED_EDGE('',*,*,#427,.T.);
#248=ORIENTED_EDGE('',*,*,#426,.F.);
#249=ORIENTED_EDGE('',*,*,#428,.F.);
#250=ORIENTED_EDGE('',*,*,#429,.T.);
#251=ORIENTED_EDGE('',*,*,#430,.T.);
#252=ORIENTED_EDGE('',*,*,#429,.F.);
#253=ORIENTED_EDGE('',*,*,#431,.F.);
#254=ORIENTED_EDGE('',*,*,#432,.T.);
#255=ORIENTED_EDGE('',*,*,#433,.T.);
#256=ORIENTED_EDGE('',*,*,#432,.F.);
#257=ORIENTED_EDGE('',*,*,#434,.F.);
#258=ORIENTED_EDGE('',*,*,#400,.T.);
#259=ORIENTED_EDGE('',*,*,#435,.F.);
#260=ORIENTED_EDGE('',*,*,#436,.T.);
#261=ORIENTED_EDGE('',*,*,#437,.F.);
#262=ORIENTED_EDGE('',*,*,#438,.T.);
#263=ORIENTED_EDGE('',*,*,#439,.F.);
#264=ORIENTED_EDGE('',*,*,#440,.T.);
#265=ORIENTED_EDGE('',*,*,#441,.F.);
#266=ORIENTED_EDGE('',*,*,#442,.T.);
#267=ORIENTED_EDGE('',*,*,#388,.F.);
#268=ORIENTED_EDGE('',*,*,#443,.T.);
#269=ORIENTED_EDGE('',*,*,#375,.T.);
#270=ORIENTED_EDGE('',*,*,#444,.T.);
#271=ORIENTED_EDGE('',*,*,#441,.T.);
#272=ORIENTED_EDGE('',*,*,#439,.T.);
#273=ORIENTED_EDGE('',*,*,#437,.T.);
#274=ORIENTED_EDGE('',*,*,#435,.T.);
#275=ORIENTED_EDGE('',*,*,#401,.T.);
#276=ORIENTED_EDGE('',*,*,#434,.T.);
#277=ORIENTED_EDGE('',*,*,#431,.T.);
#278=ORIENTED_EDGE('',*,*,#428,.T.);
#279=ORIENTED_EDGE('',*,*,#425,.T.);
#280=ORIENTED_EDGE('',*,*,#422,.T.);
#281=ORIENTED_EDGE('',*,*,#419,.T.);
#282=ORIENTED_EDGE('',*,*,#416,.T.);
#283=ORIENTED_EDGE('',*,*,#413,.T.);
#284=ORIENTED_EDGE('',*,*,#410,.T.);
#285=ORIENTED_EDGE('',*,*,#407,.T.);
#286=ORIENTED_EDGE('',*,*,#404,.T.);
#287=ORIENTED_EDGE('',*,*,#394,.F.);
#288=ORIENTED_EDGE('',*,*,#445,.T.);
#289=ORIENTED_EDGE('',*,*,#381,.T.);
#290=ORIENTED_EDGE('',*,*,#374,.T.);
#291=ORIENTED_EDGE('',*,*,#442,.F.);
#292=ORIENTED_EDGE('',*,*,#440,.F.);
#293=ORIENTED_EDGE('',*,*,#438,.F.);
#294=ORIENTED_EDGE('',*,*,#436,.F.);
#295=ORIENTED_EDGE('',*,*,#399,.F.);
#296=ORIENTED_EDGE('',*,*,#403,.F.);
#297=ORIENTED_EDGE('',*,*,#406,.F.);
#298=ORIENTED_EDGE('',*,*,#409,.F.);
#299=ORIENTED_EDGE('',*,*,#412,.F.);
#300=ORIENTED_EDGE('',*,*,#415,.F.);
#301=ORIENTED_EDGE('',*,*,#418,.F.);
#302=ORIENTED_EDGE('',*,*,#421,.F.);
#303=ORIENTED_EDGE('',*,*,#424,.F.);
#304=ORIENTED_EDGE('',*,*,#427,.F.);
#305=ORIENTED_EDGE('',*,*,#430,.F.);
#306=ORIENTED_EDGE('',*,*,#433,.F.);
#307=ORIENTED_EDGE('',*,*,#390,.T.);
#308=ORIENTED_EDGE('',*,*,#446,.T.);
#309=ORIENTED_EDGE('',*,*,#385,.F.);
#310=ORIENTED_EDGE('',*,*,#447,.T.);
#311=ORIENTED_EDGE('',*,*,#378,.F.);
#312=ORIENTED_EDGE('',*,*,#448,.T.);
#313=ORIENTED_EDGE('',*,*,#397,.T.);
#314=ORIENTED_EDGE('',*,*,#449,.T.);
#315=ORIENTED_EDGE('',*,*,#365,.T.);
#316=ORIENTED_EDGE('',*,*,#357,.F.);
#317=ORIENTED_EDGE('',*,*,#364,.T.);
#318=ORIENTED_EDGE('',*,*,#356,.F.);
#319=ORIENTED_EDGE('',*,*,#355,.F.);
#320=ORIENTED_EDGE('',*,*,#363,.F.);
#321=ORIENTED_EDGE('',*,*,#362,.F.);
#322=ORIENTED_EDGE('',*,*,#370,.F.);
#323=ORIENTED_EDGE('',*,*,#383,.F.);
#324=ORIENTED_EDGE('',*,*,#450,.T.);
#325=ORIENTED_EDGE('',*,*,#392,.T.);
#326=ORIENTED_EDGE('',*,*,#451,.T.);
#327=ORIENTED_EDGE('',*,*,#376,.F.);
#328=ORIENTED_EDGE('',*,*,#443,.F.);
#329=ORIENTED_EDGE('',*,*,#387,.F.);
#330=ORIENTED_EDGE('',*,*,#359,.F.);
#331=ORIENTED_EDGE('',*,*,#377,.F.);
#332=ORIENTED_EDGE('',*,*,#361,.F.);
#333=ORIENTED_EDGE('',*,*,#398,.F.);
#334=ORIENTED_EDGE('',*,*,#448,.F.);
#335=ORIENTED_EDGE('',*,*,#379,.F.);
#336=ORIENTED_EDGE('',*,*,#449,.F.);
#337=ORIENTED_EDGE('',*,*,#396,.F.);
#338=ORIENTED_EDGE('',*,*,#367,.F.);
#339=ORIENTED_EDGE('',*,*,#380,.F.);
#340=ORIENTED_EDGE('',*,*,#369,.F.);
#341=ORIENTED_EDGE('',*,*,#395,.F.);
#342=ORIENTED_EDGE('',*,*,#372,.F.);
#343=ORIENTED_EDGE('',*,*,#386,.F.);
#344=ORIENTED_EDGE('',*,*,#446,.F.);
#345=ORIENTED_EDGE('',*,*,#389,.F.);
#346=ORIENTED_EDGE('',*,*,#444,.F.);
#347=ORIENTED_EDGE('',*,*,#382,.F.);
#348=ORIENTED_EDGE('',*,*,#445,.F.);
#349=ORIENTED_EDGE('',*,*,#393,.F.);
#350=ORIENTED_EDGE('',*,*,#450,.F.);
#351=ORIENTED_EDGE('',*,*,#384,.F.);
#352=ORIENTED_EDGE('',*,*,#451,.F.);
#353=ORIENTED_EDGE('',*,*,#391,.F.);
#354=ORIENTED_EDGE('',*,*,#447,.F.);
#355=EDGE_CURVE('',#452,#452,#522,.F.);
#356=EDGE_CURVE('',#453,#453,#523,.F.);
#357=EDGE_CURVE('',#454,#454,#524,.F.);
#358=EDGE_CURVE('',#455,#456,#27,.T.);
#359=EDGE_CURVE('',#455,#457,#28,.T.);
#360=EDGE_CURVE('',#457,#458,#29,.T.);
#361=EDGE_CURVE('',#458,#456,#30,.F.);
#362=EDGE_CURVE('',#459,#459,#525,.F.);
#363=EDGE_CURVE('',#460,#460,#526,.T.);
#364=EDGE_CURVE('',#461,#461,#527,.T.);
#365=EDGE_CURVE('',#462,#462,#528,.T.);
#366=EDGE_CURVE('',#463,#464,#31,.T.);
#367=EDGE_CURVE('',#463,#465,#32,.T.);
#368=EDGE_CURVE('',#465,#466,#33,.T.);
#369=EDGE_CURVE('',#466,#464,#34,.F.);
#370=EDGE_CURVE('',#467,#467,#529,.T.);
#371=EDGE_CURVE('',#468,#469,#35,.T.);
#372=EDGE_CURVE('',#468,#470,#36,.T.);
#373=EDGE_CURVE('',#470,#471,#37,.T.);
#374=EDGE_CURVE('',#469,#471,#38,.T.);
#375=EDGE_CURVE('',#472,#473,#39,.T.);
#376=EDGE_CURVE('',#472,#455,#530,.F.);
#377=EDGE_CURVE('',#456,#474,#531,.F.);
#378=EDGE_CURVE('',#474,#475,#40,.T.);
#379=EDGE_CURVE('',#475,#463,#532,.F.);
#380=EDGE_CURVE('',#464,#468,#533,.T.);
#381=EDGE_CURVE('',#476,#469,#41,.T.);
#382=EDGE_CURVE('',#476,#477,#534,.F.);
#383=EDGE_CURVE('',#477,#478,#42,.T.);
#384=EDGE_CURVE('',#478,#479,#535,.F.);
#385=EDGE_CURVE('',#479,#480,#43,.T.);
#386=EDGE_CURVE('',#480,#473,#536,.F.);
#387=EDGE_CURVE('',#457,#481,#537,.T.);
#388=EDGE_CURVE('',#481,#482,#44,.T.);
#389=EDGE_CURVE('',#482,#483,#538,.T.);
#390=EDGE_CURVE('',#484,#483,#45,.T.);
#391=EDGE_CURVE('',#484,#485,#539,.T.);
#392=EDGE_CURVE('',#486,#485,#46,.T.);
#393=EDGE_CURVE('',#486,#487,#540,.T.);
#394=EDGE_CURVE('',#487,#471,#47,.T.);
#395=EDGE_CURVE('',#470,#466,#541,.F.);
#396=EDGE_CURVE('',#465,#488,#542,.T.);
#397=EDGE_CURVE('',#489,#488,#48,.T.);
#398=EDGE_CURVE('',#489,#458,#543,.T.);
#399=EDGE_CURVE('',#490,#491,#49,.T.);
#400=EDGE_CURVE('',#492,#491,#50,.T.);
#401=EDGE_CURVE('',#493,#492,#51,.T.);
#402=EDGE_CURVE('',#493,#490,#52,.T.);
#403=EDGE_CURVE('',#494,#490,#53,.T.);
#404=EDGE_CURVE('',#495,#493,#54,.T.);
#405=EDGE_CURVE('',#495,#494,#55,.T.);
#406=EDGE_CURVE('',#496,#494,#56,.T.);
#407=EDGE_CURVE('',#497,#495,#57,.T.);
#408=EDGE_CURVE('',#497,#496,#58,.T.);
#409=EDGE_CURVE('',#498,#496,#59,.T.);
#410=EDGE_CURVE('',#499,#497,#60,.T.);
#411=EDGE_CURVE('',#499,#498,#61,.T.);
#412=EDGE_CURVE('',#500,#498,#62,.T.);
#413=EDGE_CURVE('',#501,#499,#63,.T.);
#414=EDGE_CURVE('',#501,#500,#64,.T.);
#415=EDGE_CURVE('',#502,#500,#65,.T.);
#416=EDGE_CURVE('',#503,#501,#66,.T.);
#417=EDGE_CURVE('',#503,#502,#67,.T.);
#418=EDGE_CURVE('',#504,#502,#68,.T.);
#419=EDGE_CURVE('',#505,#503,#69,.T.);
#420=EDGE_CURVE('',#505,#504,#70,.T.);
#421=EDGE_CURVE('',#506,#504,#71,.T.);
#422=EDGE_CURVE('',#507,#505,#72,.T.);
#423=EDGE_CURVE('',#507,#506,#73,.T.);
#424=EDGE_CURVE('',#508,#506,#74,.T.);
#425=EDGE_CURVE('',#509,#507,#75,.T.);
#426=EDGE_CURVE('',#509,#508,#76,.T.);
#427=EDGE_CURVE('',#510,#508,#77,.T.);
#428=EDGE_CURVE('',#511,#509,#78,.T.);
#429=EDGE_CURVE('',#511,#510,#79,.T.);
#430=EDGE_CURVE('',#512,#510,#80,.T.);
#431=EDGE_CURVE('',#513,#511,#81,.T.);
#432=EDGE_CURVE('',#513,#512,#82,.T.);
#433=EDGE_CURVE('',#491,#512,#83,.T.);
#434=EDGE_CURVE('',#492,#513,#84,.T.);
#435=EDGE_CURVE('',#514,#514,#544,.T.);
#436=EDGE_CURVE('',#515,#515,#545,.T.);
#437=EDGE_CURVE('',#516,#516,#546,.T.);
#438=EDGE_CURVE('',#517,#517,#547,.T.);
#439=EDGE_CURVE('',#518,#518,#548,.T.);
#440=EDGE_CURVE('',#519,#519,#549,.T.);
#441=EDGE_CURVE('',#520,#520,#550,.T.);
#442=EDGE_CURVE('',#521,#521,#551,.T.);
#443=EDGE_CURVE('',#481,#472,#85,.F.);
#444=EDGE_CURVE('',#473,#482,#86,.T.);
#445=EDGE_CURVE('',#487,#476,#87,.F.);
#446=EDGE_CURVE('',#483,#480,#88,.F.);
#447=EDGE_CURVE('',#479,#484,#89,.T.);
#448=EDGE_CURVE('',#474,#489,#90,.T.);
#449=EDGE_CURVE('',#488,#475,#91,.F.);
#450=EDGE_CURVE('',#477,#486,#92,.T.);
#451=EDGE_CURVE('',#485,#478,#93,.F.);
#452=VERTEX_POINT('',#1023);
#453=VERTEX_POINT('',#1025);
#454=VERTEX_POINT('',#1027);
#455=VERTEX_POINT('',#1029);
#456=VERTEX_POINT('',#1030);
#457=VERTEX_POINT('',#1032);
#458=VERTEX_POINT('',#1034);
#459=VERTEX_POINT('',#1037);
#460=VERTEX_POINT('',#1040);
#461=VERTEX_POINT('',#1042);
#462=VERTEX_POINT('',#1044);
#463=VERTEX_POINT('',#1046);
#464=VERTEX_POINT('',#1047);
#465=VERTEX_POINT('',#1049);
#466=VERTEX_POINT('',#1051);
#467=VERTEX_POINT('',#1054);
#468=VERTEX_POINT('',#1057);
#469=VERTEX_POINT('',#1058);
#470=VERTEX_POINT('',#1060);
#471=VERTEX_POINT('',#1062);
#472=VERTEX_POINT('',#1066);
#473=VERTEX_POINT('',#1067);
#474=VERTEX_POINT('',#1070);
#475=VERTEX_POINT('',#1072);
#476=VERTEX_POINT('',#1076);
#477=VERTEX_POINT('',#1078);
#478=VERTEX_POINT('',#1080);
#479=VERTEX_POINT('',#1082);
#480=VERTEX_POINT('',#1084);
#481=VERTEX_POINT('',#1088);
#482=VERTEX_POINT('',#1090);
#483=VERTEX_POINT('',#1092);
#484=VERTEX_POINT('',#1094);
#485=VERTEX_POINT('',#1096);
#486=VERTEX_POINT('',#1098);
#487=VERTEX_POINT('',#1100);
#488=VERTEX_POINT('',#1104);
#489=VERTEX_POINT('',#1106);
#490=VERTEX_POINT('',#1110);
#491=VERTEX_POINT('',#1111);
#492=VERTEX_POINT('',#1113);
#493=VERTEX_POINT('',#1115);
#494=VERTEX_POINT('',#1119);
#495=VERTEX_POINT('',#1121);
#496=VERTEX_POINT('',#1125);
#497=VERTEX_POINT('',#1127);
#498=VERTEX_POINT('',#1131);
#499=VERTEX_POINT('',#1133);
#500=VERTEX_POINT('',#1137);
#501=VERTEX_POINT('',#1139);
#502=VERTEX_POINT('',#1143);
#503=VERTEX_POINT('',#1145);
#504=VERTEX_POINT('',#1149);
#505=VERTEX_POINT('',#1151);
#506=VERTEX_POINT('',#1155);
#507=VERTEX_POINT('',#1157);
#508=VERTEX_POINT('',#1161);
#509=VERTEX_POINT('',#1163);
#510=VERTEX_POINT('',#1167);
#511=VERTEX_POINT('',#1169);
#512=VERTEX_POINT('',#1173);
#513=VERTEX_POINT('',#1175);
#514=VERTEX_POINT('',#1182);
#515=VERTEX_POINT('',#1184);
#516=VERTEX_POINT('',#1187);
#517=VERTEX_POINT('',#1189);
#518=VERTEX_POINT('',#1192);
#519=VERTEX_POINT('',#1194);
#520=VERTEX_POINT('',#1197);
#521=VERTEX_POINT('',#1199);
#522=CIRCLE('',#751,0.000762);
#523=CIRCLE('',#752,0.000762);
#524=CIRCLE('',#753,0.000762);
#525=CIRCLE('',#754,0.000762);
#526=CIRCLE('',#756,0.000762);
#527=CIRCLE('',#757,0.000762);
#528=CIRCLE('',#758,0.000762);
#529=CIRCLE('',#759,0.000762);
#530=CIRCLE('',#762,0.000762);
#531=CIRCLE('',#763,0.000762);
#532=CIRCLE('',#764,0.000762);
#533=CIRCLE('',#765,0.000762);
#534=CIRCLE('',#766,0.000762);
#535=CIRCLE('',#767,0.000762);
#536=CIRCLE('',#768,0.000762);
#537=CIRCLE('',#770,0.000762);
#538=CIRCLE('',#771,0.000762);
#539=CIRCLE('',#772,0.000762);
#540=CIRCLE('',#773,0.000762);
#541=CIRCLE('',#774,0.000762);
#542=CIRCLE('',#775,0.000762);
#543=CIRCLE('',#776,0.000762);
#544=CIRCLE('',#790,0.000999999999999962);
#545=CIRCLE('',#791,0.000999999999999962);
#546=CIRCLE('',#793,0.000999999999999962);
#547=CIRCLE('',#794,0.000999999999999962);
#548=CIRCLE('',#796,0.001);
#549=CIRCLE('',#797,0.001);
#550=CIRCLE('',#799,0.001);
#551=CIRCLE('',#800,0.001);
#552=EDGE_LOOP('',(#161));
#553=EDGE_LOOP('',(#162));
#554=EDGE_LOOP('',(#163));
#555=EDGE_LOOP('',(#164,#165,#166,#167));
#556=EDGE_LOOP('',(#168));
#557=EDGE_LOOP('',(#169));
#558=EDGE_LOOP('',(#170));
#559=EDGE_LOOP('',(#171));
#560=EDGE_LOOP('',(#172,#173,#174,#175));
#561=EDGE_LOOP('',(#176));
#562=EDGE_LOOP('',(#177,#178,#179,#180));
#563=EDGE_LOOP('',(#181,#182,#183,#184,#185,#186,#187,#188,#189,#190,#191,
#192,#193,#194,#195));
#564=EDGE_LOOP('',(#196,#197,#198,#199,#200,#201,#202,#203,#204,#205,#206,
#207,#208,#209,#210));
#565=EDGE_LOOP('',(#211,#212,#213,#214));
#566=EDGE_LOOP('',(#215,#216,#217,#218));
#567=EDGE_LOOP('',(#219,#220,#221,#222));
#568=EDGE_LOOP('',(#223,#224,#225,#226));
#569=EDGE_LOOP('',(#227,#228,#229,#230));
#570=EDGE_LOOP('',(#231,#232,#233,#234));
#571=EDGE_LOOP('',(#235,#236,#237,#238));
#572=EDGE_LOOP('',(#239,#240,#241,#242));
#573=EDGE_LOOP('',(#243,#244,#245,#246));
#574=EDGE_LOOP('',(#247,#248,#249,#250));
#575=EDGE_LOOP('',(#251,#252,#253,#254));
#576=EDGE_LOOP('',(#255,#256,#257,#258));
#577=EDGE_LOOP('',(#259));
#578=EDGE_LOOP('',(#260));
#579=EDGE_LOOP('',(#261));
#580=EDGE_LOOP('',(#262));
#581=EDGE_LOOP('',(#263));
#582=EDGE_LOOP('',(#264));
#583=EDGE_LOOP('',(#265));
#584=EDGE_LOOP('',(#266));
#585=EDGE_LOOP('',(#267,#268,#269,#270));
#586=EDGE_LOOP('',(#271));
#587=EDGE_LOOP('',(#272));
#588=EDGE_LOOP('',(#273));
#589=EDGE_LOOP('',(#274));
#590=EDGE_LOOP('',(#275,#276,#277,#278,#279,#280,#281,#282,#283,#284,#285,
#286));
#591=EDGE_LOOP('',(#287,#288,#289,#290));
#592=EDGE_LOOP('',(#291));
#593=EDGE_LOOP('',(#292));
#594=EDGE_LOOP('',(#293));
#595=EDGE_LOOP('',(#294));
#596=EDGE_LOOP('',(#295,#296,#297,#298,#299,#300,#301,#302,#303,#304,#305,
#306));
#597=EDGE_LOOP('',(#307,#308,#309,#310));
#598=EDGE_LOOP('',(#311,#312,#313,#314));
#599=EDGE_LOOP('',(#315));
#600=EDGE_LOOP('',(#316));
#601=EDGE_LOOP('',(#317));
#602=EDGE_LOOP('',(#318));
#603=EDGE_LOOP('',(#319));
#604=EDGE_LOOP('',(#320));
#605=EDGE_LOOP('',(#321));
#606=EDGE_LOOP('',(#322));
#607=EDGE_LOOP('',(#323,#324,#325,#326));
#608=EDGE_LOOP('',(#327,#328,#329,#330));
#609=EDGE_LOOP('',(#331,#332,#333,#334));
#610=EDGE_LOOP('',(#335,#336,#337,#338));
#611=EDGE_LOOP('',(#339,#340,#341,#342));
#612=EDGE_LOOP('',(#343,#344,#345,#346));
#613=EDGE_LOOP('',(#347,#348,#349,#350));
#614=EDGE_LOOP('',(#351,#352,#353,#354));
#615=FACE_BOUND('',#552,.T.);
#616=FACE_BOUND('',#553,.T.);
#617=FACE_BOUND('',#554,.T.);
#618=FACE_BOUND('',#555,.T.);
#619=FACE_BOUND('',#556,.T.);
#620=FACE_BOUND('',#557,.T.);
#621=FACE_BOUND('',#558,.T.);
#622=FACE_BOUND('',#559,.T.);
#623=FACE_BOUND('',#560,.T.);
#624=FACE_BOUND('',#561,.T.);
#625=FACE_BOUND('',#562,.T.);
#626=FACE_BOUND('',#563,.T.);
#627=FACE_BOUND('',#564,.T.);
#628=FACE_BOUND('',#565,.T.);
#629=FACE_BOUND('',#566,.T.);
#630=FACE_BOUND('',#567,.T.);
#631=FACE_BOUND('',#568,.T.);
#632=FACE_BOUND('',#569,.T.);
#633=FACE_BOUND('',#570,.T.);
#634=FACE_BOUND('',#571,.T.);
#635=FACE_BOUND('',#572,.T.);
#636=FACE_BOUND('',#573,.T.);
#637=FACE_BOUND('',#574,.T.);
#638=FACE_BOUND('',#575,.T.);
#639=FACE_BOUND('',#576,.T.);
#640=FACE_BOUND('',#577,.T.);
#641=FACE_BOUND('',#578,.T.);
#642=FACE_BOUND('',#579,.T.);
#643=FACE_BOUND('',#580,.T.);
#644=FACE_BOUND('',#581,.T.);
#645=FACE_BOUND('',#582,.T.);
#646=FACE_BOUND('',#583,.T.);
#647=FACE_BOUND('',#584,.T.);
#648=FACE_BOUND('',#585,.T.);
#649=FACE_BOUND('',#586,.T.);
#650=FACE_BOUND('',#587,.T.);
#651=FACE_BOUND('',#588,.T.);
#652=FACE_BOUND('',#589,.T.);
#653=FACE_BOUND('',#590,.T.);
#654=FACE_BOUND('',#591,.T.);
#655=FACE_BOUND('',#592,.T.);
#656=FACE_BOUND('',#593,.T.);
#657=FACE_BOUND('',#594,.T.);
#658=FACE_BOUND('',#595,.T.);
#659=FACE_BOUND('',#596,.T.);
#660=FACE_BOUND('',#597,.T.);
#661=FACE_BOUND('',#598,.T.);
#662=FACE_BOUND('',#599,.T.);
#663=FACE_BOUND('',#600,.T.);
#664=FACE_BOUND('',#601,.T.);
#665=FACE_BOUND('',#602,.T.);
#666=FACE_BOUND('',#603,.T.);
#667=FACE_BOUND('',#604,.T.);
#668=FACE_BOUND('',#605,.T.);
#669=FACE_BOUND('',#606,.T.);
#670=FACE_BOUND('',#607,.T.);
#671=FACE_BOUND('',#608,.T.);
#672=FACE_BOUND('',#609,.T.);
#673=FACE_BOUND('',#610,.T.);
#674=FACE_BOUND('',#611,.T.);
#675=FACE_BOUND('',#612,.T.);
#676=FACE_BOUND('',#613,.T.);
#677=FACE_BOUND('',#614,.T.);
#678=PLANE('',#750);
#679=PLANE('',#755);
#680=PLANE('',#760);
#681=PLANE('',#761);
#682=PLANE('',#769);
#683=PLANE('',#777);
#684=PLANE('',#778);
#685=PLANE('',#779);
#686=PLANE('',#780);
#687=PLANE('',#781);
#688=PLANE('',#782);
#689=PLANE('',#783);
#690=PLANE('',#784);
#691=PLANE('',#785);
#692=PLANE('',#786);
#693=PLANE('',#787);
#694=PLANE('',#788);
#695=PLANE('',#801);
#696=PLANE('',#802);
#697=PLANE('',#803);
#698=PLANE('',#804);
#699=PLANE('',#809);
#700=ADVANCED_FACE('',(#615,#616,#617,#618,#619),#678,.T.);
#701=ADVANCED_FACE('',(#620,#621,#622,#623,#624),#679,.T.);
#702=ADVANCED_FACE('',(#625),#680,.T.);
#703=ADVANCED_FACE('',(#626),#681,.F.);
#704=ADVANCED_FACE('',(#627),#682,.T.);
#705=ADVANCED_FACE('',(#628),#683,.F.);
#706=ADVANCED_FACE('',(#629),#684,.F.);
#707=ADVANCED_FACE('',(#630),#685,.F.);
#708=ADVANCED_FACE('',(#631),#686,.F.);
#709=ADVANCED_FACE('',(#632),#687,.F.);
#710=ADVANCED_FACE('',(#633),#688,.F.);
#711=ADVANCED_FACE('',(#634),#689,.F.);
#712=ADVANCED_FACE('',(#635),#690,.F.);
#713=ADVANCED_FACE('',(#636),#691,.F.);
#714=ADVANCED_FACE('',(#637),#692,.F.);
#715=ADVANCED_FACE('',(#638),#693,.F.);
#716=ADVANCED_FACE('',(#639),#694,.F.);
#717=ADVANCED_FACE('',(#640,#641),#12,.F.);
#718=ADVANCED_FACE('',(#642,#643),#13,.F.);
#719=ADVANCED_FACE('',(#644,#645),#14,.F.);
#720=ADVANCED_FACE('',(#646,#647),#15,.F.);
#721=ADVANCED_FACE('',(#648),#695,.F.);
#722=ADVANCED_FACE('',(#649,#650,#651,#652,#653,#654),#696,.F.);
#723=ADVANCED_FACE('',(#655,#656,#657,#658,#659,#660),#697,.T.);
#724=ADVANCED_FACE('',(#661),#698,.T.);
#725=ADVANCED_FACE('',(#662,#663),#16,.F.);
#726=ADVANCED_FACE('',(#664,#665),#17,.F.);
#727=ADVANCED_FACE('',(#666,#667),#18,.F.);
#728=ADVANCED_FACE('',(#668,#669),#19,.F.);
#729=ADVANCED_FACE('',(#670),#699,.T.);
#730=ADVANCED_FACE('',(#671),#20,.T.);
#731=ADVANCED_FACE('',(#672),#21,.T.);
#732=ADVANCED_FACE('',(#673),#22,.T.);
#733=ADVANCED_FACE('',(#674),#23,.F.);
#734=ADVANCED_FACE('',(#675),#24,.T.);
#735=ADVANCED_FACE('',(#676),#25,.T.);
#736=ADVANCED_FACE('',(#677),#26,.T.);
#737=CLOSED_SHELL('',(#700,#701,#702,#703,#704,#705,#706,#707,#708,#709,
#710,#711,#712,#713,#714,#715,#716,#717,#718,#719,#720,#721,#722,#723,#724,
#725,#726,#727,#728,#729,#730,#731,#732,#733,#734,#735,#736));
#738=STYLED_ITEM('',(#739),#746);
#739=PRESENTATION_STYLE_ASSIGNMENT((#740));
#740=SURFACE_STYLE_USAGE(.BOTH.,#741);
#741=SURFACE_SIDE_STYLE('',(#742));
#742=SURFACE_STYLE_FILL_AREA(#743);
#743=FILL_AREA_STYLE('',(#744));
#744=FILL_AREA_STYLE_COLOUR('',#745);
#745=COLOUR_RGB('',0.615686274509804,0.811764705882353,0.929411764705882);
#746=MANIFOLD_SOLID_BREP('Part 1',#737);
#747=SHAPE_DEFINITION_REPRESENTATION(#1231,#748);
#748=SHAPE_REPRESENTATION('Part 1',(#749),#1226);
#749=AXIS2_PLACEMENT_3D('',#1020,#817,#818);
#750=AXIS2_PLACEMENT_3D('',#1021,#819,#820);
#751=AXIS2_PLACEMENT_3D('',#1022,#821,#822);
#752=AXIS2_PLACEMENT_3D('',#1024,#823,#824);
#753=AXIS2_PLACEMENT_3D('',#1026,#825,#826);
#754=AXIS2_PLACEMENT_3D('',#1036,#831,#832);
#755=AXIS2_PLACEMENT_3D('',#1038,#833,#834);
#756=AXIS2_PLACEMENT_3D('',#1039,#835,#836);
#757=AXIS2_PLACEMENT_3D('',#1041,#837,#838);
#758=AXIS2_PLACEMENT_3D('',#1043,#839,#840);
#759=AXIS2_PLACEMENT_3D('',#1053,#845,#846);
#760=AXIS2_PLACEMENT_3D('',#1055,#847,#848);
#761=AXIS2_PLACEMENT_3D('',#1064,#853,#854);
#762=AXIS2_PLACEMENT_3D('',#1068,#856,#857);
#763=AXIS2_PLACEMENT_3D('',#1069,#858,#859);
#764=AXIS2_PLACEMENT_3D('',#1073,#861,#862);
#765=AXIS2_PLACEMENT_3D('',#1074,#863,#864);
#766=AXIS2_PLACEMENT_3D('',#1077,#866,#867);
#767=AXIS2_PLACEMENT_3D('',#1081,#869,#870);
#768=AXIS2_PLACEMENT_3D('',#1085,#872,#873);
#769=AXIS2_PLACEMENT_3D('',#1086,#874,#875);
#770=AXIS2_PLACEMENT_3D('',#1087,#876,#877);
#771=AXIS2_PLACEMENT_3D('',#1091,#879,#880);
#772=AXIS2_PLACEMENT_3D('',#1095,#882,#883);
#773=AXIS2_PLACEMENT_3D('',#1099,#885,#886);
#774=AXIS2_PLACEMENT_3D('',#1102,#888,#889);
#775=AXIS2_PLACEMENT_3D('',#1103,#890,#891);
#776=AXIS2_PLACEMENT_3D('',#1107,#893,#894);
#777=AXIS2_PLACEMENT_3D('',#1108,#895,#896);
#778=AXIS2_PLACEMENT_3D('',#1117,#901,#902);
#779=AXIS2_PLACEMENT_3D('',#1123,#906,#907);
#780=AXIS2_PLACEMENT_3D('',#1129,#911,#912);
#781=AXIS2_PLACEMENT_3D('',#1135,#916,#917);
#782=AXIS2_PLACEMENT_3D('',#1141,#921,#922);
#783=AXIS2_PLACEMENT_3D('',#1147,#926,#927);
#784=AXIS2_PLACEMENT_3D('',#1153,#931,#932);
#785=AXIS2_PLACEMENT_3D('',#1159,#936,#937);
#786=AXIS2_PLACEMENT_3D('',#1165,#941,#942);
#787=AXIS2_PLACEMENT_3D('',#1171,#946,#947);
#788=AXIS2_PLACEMENT_3D('',#1177,#951,#952);
#789=AXIS2_PLACEMENT_3D('',#1180,#955,#956);
#790=AXIS2_PLACEMENT_3D('',#1181,#957,#958);
#791=AXIS2_PLACEMENT_3D('',#1183,#959,#960);
#792=AXIS2_PLACEMENT_3D('',#1185,#961,#962);
#793=AXIS2_PLACEMENT_3D('',#1186,#963,#964);
#794=AXIS2_PLACEMENT_3D('',#1188,#965,#966);
#795=AXIS2_PLACEMENT_3D('',#1190,#967,#968);
#796=AXIS2_PLACEMENT_3D('',#1191,#969,#970);
#797=AXIS2_PLACEMENT_3D('',#1193,#971,#972);
#798=AXIS2_PLACEMENT_3D('',#1195,#973,#974);
#799=AXIS2_PLACEMENT_3D('',#1196,#975,#976);
#800=AXIS2_PLACEMENT_3D('',#1198,#977,#978);
#801=AXIS2_PLACEMENT_3D('',#1200,#979,#980);
#802=AXIS2_PLACEMENT_3D('',#1203,#983,#984);
#803=AXIS2_PLACEMENT_3D('',#1205,#986,#987);
#804=AXIS2_PLACEMENT_3D('',#1208,#990,#991);
#805=AXIS2_PLACEMENT_3D('',#1211,#994,#995);
#806=AXIS2_PLACEMENT_3D('',#1212,#996,#997);
#807=AXIS2_PLACEMENT_3D('',#1213,#998,#999);
#808=AXIS2_PLACEMENT_3D('',#1214,#1000,#1001);
#809=AXIS2_PLACEMENT_3D('',#1215,#1002,#1003);
#810=AXIS2_PLACEMENT_3D('',#1218,#1006,#1007);
#811=AXIS2_PLACEMENT_3D('',#1219,#1008,#1009);
#812=AXIS2_PLACEMENT_3D('',#1220,#1010,#1011);
#813=AXIS2_PLACEMENT_3D('',#1221,#1012,#1013);
#814=AXIS2_PLACEMENT_3D('',#1222,#1014,#1015);
#815=AXIS2_PLACEMENT_3D('',#1223,#1016,#1017);
#816=AXIS2_PLACEMENT_3D('',#1224,#1018,#1019);
#817=DIRECTION('',(0.,0.,1.));
#818=DIRECTION('',(1.,0.,0.));
#819=DIRECTION('',(0.4226182617407,0.90630778703665,2.01240754513032E-16));
#820=DIRECTION('',(-0.90630778703665,0.4226182617407,9.3840104962317E-17));
#821=DIRECTION('',(0.4226182617407,0.90630778703665,2.01240754513032E-16));
#822=DIRECTION('',(-0.90630778703665,0.4226182617407,0.));
#823=DIRECTION('',(0.4226182617407,0.90630778703665,2.01240754513032E-16));
#824=DIRECTION('',(-0.90630778703665,0.4226182617407,0.));
#825=DIRECTION('',(0.4226182617407,0.90630778703665,2.01240754513032E-16));
#826=DIRECTION('',(-0.90630778703665,0.4226182617407,0.));
#827=DIRECTION('',(-0.90630778703665,0.4226182617407,5.58555297883268E-32));
#828=DIRECTION('',(9.11228762825174E-18,2.17795475420666E-16,-1.));
#829=DIRECTION('',(-0.90630778703665,0.4226182617407,1.43564406596135E-16));
#830=DIRECTION('',(9.11228762825175E-18,2.17795475420666E-16,-1.));
#831=DIRECTION('',(0.4226182617407,0.90630778703665,2.01240754513032E-16));
#832=DIRECTION('',(-0.90630778703665,0.4226182617407,0.));
#833=DIRECTION('',(-0.4226182617407,-0.90630778703665,1.34320595686703E-16));
#834=DIRECTION('',(0.90630778703665,-0.4226182617407,0.));
#835=DIRECTION('',(0.4226182617407,0.90630778703665,-1.34320595686703E-16));
#836=DIRECTION('',(-0.906307544692865,0.422618148733936,-0.000731295762171775));
#837=DIRECTION('',(-0.4226182617407,-0.90630778703665,1.34320595686703E-16));
#838=DIRECTION('',(0.906307544692864,-0.422618148733938,-0.000731295762171778));
#839=DIRECTION('',(-0.4226182617407,-0.90630778703665,1.34320595686703E-16));
#840=DIRECTION('',(0.906307780032958,-0.422618258474824,0.000124319904466165));
#841=DIRECTION('',(0.90630778703665,-0.4226182617407,-8.37858080020689E-17));
#842=DIRECTION('',(-1.32702066900522E-16,-8.63263892938861E-17,-1.));
#843=DIRECTION('',(0.90630778703665,-0.4226182617407,-8.37858080020689E-17));
#844=DIRECTION('',(-1.32702066900522E-16,-8.63263892938861E-17,-1.));
#845=DIRECTION('',(0.4226182617407,0.90630778703665,-1.34320595686703E-16));
#846=DIRECTION('',(-0.906307780032958,0.422618258474825,0.000124319904465597));
#847=DIRECTION('',(-0.90630778703665,0.4226182617407,8.37858080020689E-17));
#848=DIRECTION('',(-0.4226182617407,-0.90630778703665,0.));
#849=DIRECTION('',(-0.4226182617407,-0.90630778703665,-2.01240754513032E-16));
#850=DIRECTION('',(-1.32702066900522E-16,-8.63263892938861E-17,-1.));
#851=DIRECTION('',(-0.4226182617407,-0.90630778703665,-2.01240754513032E-16));
#852=DIRECTION('',(9.11228762825177E-18,2.17795475420666E-16,-1.));
#853=DIRECTION('',(8.50480178636845E-17,1.82386062884291E-16,-1.));
#854=DIRECTION('',(0.,1.,1.82386062884291E-16));
#855=DIRECTION('',(-0.4226182617407,-0.90630778703665,-2.01240754513032E-16));
#856=DIRECTION('',(8.50480178636845E-17,1.82386062884291E-16,-1.));
#857=DIRECTION('',(0.,1.,1.82386062884291E-16));
#858=DIRECTION('',(8.50480178636845E-17,1.82386062884291E-16,-1.));
#859=DIRECTION('',(0.,1.,1.82386062884291E-16));
#860=DIRECTION('',(-0.4226182617407,-0.90630778703665,-2.32552332951799E-32));
#861=DIRECTION('',(8.50480178636845E-17,1.82386062884291E-16,-1.));
#862=DIRECTION('',(0.,1.,1.82386062884291E-16));
#863=DIRECTION('',(8.50480178636845E-17,1.82386062884291E-16,-1.));
#864=DIRECTION('',(0.,1.,1.82386062884291E-16));
#865=DIRECTION('',(0.90630778703665,-0.4226182617407,0.));
#866=DIRECTION('',(8.50480178636845E-17,1.82386062884291E-16,-1.));
#867=DIRECTION('',(0.,1.,1.82386062884291E-16));
#868=DIRECTION('',(-0.4226182617407,-0.90630778703665,-2.01240754513032E-16));
#869=DIRECTION('',(8.50480178636845E-17,1.82386062884291E-16,-1.));
#870=DIRECTION('',(0.,1.,1.82386062884291E-16));
#871=DIRECTION('',(0.90630778703665,-0.4226182617407,0.));
#872=DIRECTION('',(8.50480178636845E-17,1.82386062884291E-16,-1.));
#873=DIRECTION('',(0.,1.,1.82386062884291E-16));
#874=DIRECTION('',(4.83358380631117E-18,2.19790667779814E-16,-1.));
#875=DIRECTION('',(0.,1.,2.19790667779814E-16));
#876=DIRECTION('',(4.83358380631117E-18,2.19790667779814E-16,-1.));
#877=DIRECTION('',(0.,1.,2.19790667779814E-16));
#878=DIRECTION('',(-0.4226182617407,-0.90630778703665,-2.01240754513032E-16));
#879=DIRECTION('',(4.83358380631117E-18,2.19790667779814E-16,-1.));
#880=DIRECTION('',(0.,1.,2.19790667779814E-16));
#881=DIRECTION('',(0.90630778703665,-0.4226182617407,-8.85068353209786E-17));
#882=DIRECTION('',(4.83358380631117E-18,2.19790667779814E-16,-1.));
#883=DIRECTION('',(0.,1.,2.19790667779814E-16));
#884=DIRECTION('',(-0.4226182617407,-0.90630778703665,-2.01240754513032E-16));
#885=DIRECTION('',(4.83358380631117E-18,2.19790667779814E-16,-1.));
#886=DIRECTION('',(0.,1.,2.19790667779814E-16));
#887=DIRECTION('',(0.90630778703665,-0.4226182617407,-8.85068353209786E-17));
#888=DIRECTION('',(4.83358380631117E-18,2.19790667779814E-16,-1.));
#889=DIRECTION('',(0.,1.,2.19790667779814E-16));
#890=DIRECTION('',(4.83358380631117E-18,2.19790667779814E-16,-1.));
#891=DIRECTION('',(0.,1.,2.19790667779814E-16));
#892=DIRECTION('',(-0.4226182617407,-0.90630778703665,-4.65104665903598E-33));
#893=DIRECTION('',(4.83358380631117E-18,2.19790667779814E-16,-1.));
#894=DIRECTION('',(0.,1.,2.19790667779814E-16));
#895=DIRECTION('',(-0.90630778703665,0.4226182617407,-2.00283998539443E-14));
#896=DIRECTION('',(-0.4226182617407,-0.90630778703665,0.));
#897=DIRECTION('',(1.8236942767377E-14,-8.28198146883732E-15,-1.));
#898=DIRECTION('',(-0.4226182617407,-0.90630778703665,-2.01240754513032E-16));
#899=DIRECTION('',(1.8236942767377E-14,-8.28198146883732E-15,-1.));
#900=DIRECTION('',(-0.4226182617407,-0.90630778703665,-2.01240754513032E-16));
#901=DIRECTION('',(-8.50480178636844E-17,-1.82386062884291E-16,1.));
#902=DIRECTION('',(0.,-1.,-1.82386062884291E-16));
#903=DIRECTION('',(-0.90630778703665,0.4226182617407,1.11711059576653E-32));
#904=DIRECTION('',(-0.90630778703665,0.4226182617407,1.11711059576653E-32));
#905=DIRECTION('',(-0.4226182617407,-0.90630778703665,-2.01240754513032E-16));
#906=DIRECTION('',(0.90630778703665,-0.4226182617407,0.));
#907=DIRECTION('',(0.4226182617407,0.90630778703665,0.));
#908=DIRECTION('',(-8.50480178636845E-17,-1.82386062884291E-16,1.));
#909=DIRECTION('',(-8.50480178636845E-17,-1.82386062884291E-16,1.));
#910=DIRECTION('',(-0.4226182617407,-0.90630778703665,-2.01240754513032E-16));
#911=DIRECTION('',(-8.50480178636845E-17,-1.82386062884291E-16,1.));
#912=DIRECTION('',(0.,-1.,-1.82386062884291E-16));
#913=DIRECTION('',(-0.90630778703665,0.4226182617407,-1.11711059576653E-32));
#914=DIRECTION('',(-0.90630778703665,0.4226182617407,-1.11711059576653E-32));
#915=DIRECTION('',(-0.4226182617407,-0.90630778703665,-2.01240754513032E-16));
#916=DIRECTION('',(0.90630778703665,-0.4226182617407,-2.90813445696318E-15));
#917=DIRECTION('',(0.4226182617407,0.90630778703665,0.));
#918=DIRECTION('',(2.55061688623164E-15,-1.4114167919943E-15,1.));
#919=DIRECTION('',(2.55061688623164E-15,-1.4114167919943E-15,1.));
#920=DIRECTION('',(-0.4226182617407,-0.90630778703665,-2.01240754513032E-16));
#921=DIRECTION('',(8.50480178636845E-17,1.82386062884291E-16,-1.));
#922=DIRECTION('',(0.,1.,1.82386062884291E-16));
#923=DIRECTION('',(0.90630778703665,-0.4226182617407,1.00539953618988E-31));
#924=DIRECTION('',(0.90630778703665,-0.4226182617407,1.00539953618988E-31));
#925=DIRECTION('',(-0.4226182617407,-0.90630778703665,-2.01240754513032E-16));
#926=DIRECTION('',(0.90630778703665,-0.4226182617407,-2.69217556037833E-14));
#927=DIRECTION('',(0.4226182617407,0.90630778703665,0.));
#928=DIRECTION('',(2.43143487265427E-14,-1.15600116191631E-14,1.));
#929=DIRECTION('',(2.43143487265427E-14,-1.15600116191631E-14,1.));
#930=DIRECTION('',(-0.4226182617407,-0.90630778703665,-2.01240754513032E-16));
#931=DIRECTION('',(8.50480178636845E-17,1.82386062884291E-16,-1.));
#932=DIRECTION('',(0.,1.,1.82386062884291E-16));
#933=DIRECTION('',(0.90630778703665,-0.4226182617407,1.11711059576653E-32));
#934=DIRECTION('',(0.90630778703665,-0.4226182617407,1.11711059576653E-32));
#935=DIRECTION('',(-0.4226182617407,-0.90630778703665,-2.01240754513032E-16));
#936=DIRECTION('',(-0.90630778703665,0.4226182617407,0.));
#937=DIRECTION('',(-0.4226182617407,-0.90630778703665,0.));
#938=DIRECTION('',(8.50480178636845E-17,1.82386062884291E-16,-1.));
#939=DIRECTION('',(8.50480178636845E-17,1.82386062884291E-16,-1.));
#940=DIRECTION('',(-0.4226182617407,-0.90630778703665,-2.01240754513032E-16));
#941=DIRECTION('',(-2.29390661062925E-16,3.2901122688791E-16,-1.));
#942=DIRECTION('',(0.,1.,3.2901122688791E-16));
#943=DIRECTION('',(0.90630778703665,-0.4226182617407,-3.46944695195358E-16));
#944=DIRECTION('',(0.90630778703665,-0.4226182617407,-3.46944695195358E-16));
#945=DIRECTION('',(-0.4226182617407,-0.90630778703665,-2.01240754513032E-16));
#946=DIRECTION('',(-0.90630778703665,0.4226182617407,1.83281455004526E-16));
#947=DIRECTION('',(-0.4226182617407,-0.90630778703665,0.));
#948=DIRECTION('',(-8.10613920263246E-17,2.5984415280761E-16,-1.));
#949=DIRECTION('',(-8.10613920263246E-17,2.5984415280761E-16,-1.));
#950=DIRECTION('',(-0.4226182617407,-0.90630778703665,-2.01240754513032E-16));
#951=DIRECTION('',(-8.50480178636844E-17,-1.82386062884291E-16,1.));
#952=DIRECTION('',(0.,-1.,-1.82386062884291E-16));
#953=DIRECTION('',(-0.90630778703665,0.4226182617407,4.46844238306614E-32));
#954=DIRECTION('',(-0.90630778703665,0.4226182617407,4.46844238306614E-32));
#955=DIRECTION('',(-0.4226182617407,-0.90630778703665,-2.01240754513032E-16));
#956=DIRECTION('',(0.90630778703665,-0.4226182617407,0.));
#957=DIRECTION('',(-0.4226182617407,-0.90630778703665,-2.01240754513032E-16));
#958=DIRECTION('',(0.90630778703665,-0.422618261740699,0.));
#959=DIRECTION('',(-0.4226182617407,-0.90630778703665,-2.01240754513032E-16));
#960=DIRECTION('',(0.90630778703665,-0.422618261740699,0.));
#961=DIRECTION('',(-0.4226182617407,-0.90630778703665,-2.01240754513032E-16));
#962=DIRECTION('',(0.90630778703665,-0.4226182617407,0.));
#963=DIRECTION('',(-0.4226182617407,-0.90630778703665,-2.01240754513032E-16));
#964=DIRECTION('',(0.90630778703665,-0.422618261740699,0.));
#965=DIRECTION('',(-0.4226182617407,-0.90630778703665,-2.01240754513032E-16));
#966=DIRECTION('',(0.90630778703665,-0.422618261740699,0.));
#967=DIRECTION('',(-0.4226182617407,-0.90630778703665,-2.01240754513032E-16));
#968=DIRECTION('',(0.90630778703665,-0.4226182617407,0.));
#969=DIRECTION('',(-0.4226182617407,-0.90630778703665,-2.01240754513032E-16));
#970=DIRECTION('',(0.90630778703665,-0.4226182617407,0.));
#971=DIRECTION('',(-0.4226182617407,-0.90630778703665,-2.01240754513032E-16));
#972=DIRECTION('',(0.90630778703665,-0.4226182617407,0.));
#973=DIRECTION('',(-0.4226182617407,-0.90630778703665,-2.01240754513032E-16));
#974=DIRECTION('',(0.90630778703665,-0.4226182617407,0.));
#975=DIRECTION('',(-0.4226182617407,-0.90630778703665,-2.01240754513032E-16));#976=DIRECTION('',(0.90630778703665,-0.4226182617407,0.));
#977=DIRECTION('',(-0.4226182617407,-0.90630778703665,-2.01240754513032E-16));
#978=DIRECTION('',(0.90630778703665,-0.4226182617407,0.));
#979=DIRECTION('',(-0.90630778703665,0.4226182617407,8.37858080020689E-17));
#980=DIRECTION('',(-0.4226182617407,-0.90630778703665,0.));
#981=DIRECTION('',(9.11228762825176E-18,2.17795475420666E-16,-1.));
#982=DIRECTION('',(9.11228762825176E-18,2.17795475420666E-16,-1.));
#983=DIRECTION('',(-0.4226182617407,-0.90630778703665,-2.01240754513032E-16));
#984=DIRECTION('',(0.90630778703665,-0.4226182617407,-9.3840104962317E-17));
#985=DIRECTION('',(9.11228762825176E-18,2.17795475420666E-16,-1.));
#986=DIRECTION('',(-0.4226182617407,-0.90630778703665,-2.01240754513032E-16));
#987=DIRECTION('',(0.90630778703665,-0.4226182617407,-9.3840104962317E-17));
#988=DIRECTION('',(9.11228762825176E-18,2.17795475420666E-16,-1.));
#989=DIRECTION('',(9.11228762825175E-18,2.17795475420666E-16,-1.));
#990=DIRECTION('',(-0.90630778703665,0.4226182617407,8.37858080020689E-17));
#991=DIRECTION('',(-0.4226182617407,-0.90630778703665,3.90699639160691E-17));
#992=DIRECTION('',(9.11228762825174E-18,2.17795475420666E-16,-1.));
#993=DIRECTION('',(-1.32702066900522E-16,-8.63263892938861E-17,-1.));
#994=DIRECTION('',(-0.4226182617407,-0.90630778703665,1.34320595686703E-16));
#995=DIRECTION('',(0.90630778703665,-0.4226182617407,0.));
#996=DIRECTION('',(-0.4226182617407,-0.90630778703665,1.34320595686703E-16));
#997=DIRECTION('',(0.90630778703665,-0.4226182617407,0.));
#998=DIRECTION('',(-0.4226182617407,-0.90630778703665,1.34320595686703E-16));
#999=DIRECTION('',(0.90630778703665,-0.4226182617407,0.));
#1000=DIRECTION('',(-0.4226182617407,-0.90630778703665,1.34320595686703E-16));
#1001=DIRECTION('',(0.90630778703665,-0.4226182617407,0.));
#1002=DIRECTION('',(-0.90630778703665,0.4226182617407,8.37858080020689E-17));
#1003=DIRECTION('',(-0.4226182617407,-0.90630778703665,0.));
#1004=DIRECTION('',(9.11228762825176E-18,2.17795475420666E-16,-1.));
#1005=DIRECTION('',(9.11228762825174E-18,2.17795475420666E-16,-1.));
#1006=DIRECTION('',(-9.11228762825175E-18,-2.17795475420666E-16,1.));
#1007=DIRECTION('',(0.,-1.,-2.17795475420666E-16));
#1008=DIRECTION('',(9.11228762825174E-18,2.17795475420666E-16,-1.));
#1009=DIRECTION('',(0.,1.,2.17795475420666E-16));
#1010=DIRECTION('',(-1.32702066900522E-16,-8.63263892938861E-17,-1.));
#1011=DIRECTION('',(-1.,0.,1.32702066900522E-16));
#1012=DIRECTION('',(1.32702066900522E-16,8.63263892938861E-17,1.));
#1013=DIRECTION('',(1.,0.,-1.32702066900522E-16));
#1014=DIRECTION('',(-9.11228762825176E-18,-2.17795475420666E-16,1.));
#1015=DIRECTION('',(0.,-1.,-2.17795475420666E-16));
#1016=DIRECTION('',(-9.11228762825176E-18,-2.17795475420666E-16,1.));
#1017=DIRECTION('',(0.,-1.,-2.17795475420666E-16));
#1018=DIRECTION('',(9.11228762825175E-18,2.17795475420666E-16,-1.));
#1019=DIRECTION('',(0.,1.,2.17795475420666E-16));
#1020=CARTESIAN_POINT('',(0.,0.,0.));
#1021=CARTESIAN_POINT('',(-0.0200567151836968,0.00226286522666053,0.015667324885726));
#1022=CARTESIAN_POINT('',(-0.0250628016409873,0.00459724167908113,0.028367324885726));
#1023=CARTESIAN_POINT('',(-0.0257534081747093,0.00491927679452754,0.028367324885726));
#1024=CARTESIAN_POINT('',(-0.0480830194317183,0.0153317455272949,0.028367324885726));
#1025=CARTESIAN_POINT('',(-0.0487736259654402,0.0156537806427413,0.028367324885726));
#1026=CARTESIAN_POINT('',(-0.0480830194317183,0.0153317455272949,0.00296732488572597));
#1027=CARTESIAN_POINT('',(-0.0487736259654402,0.0156537806427413,0.00296732488572597));
#1028=CARTESIAN_POINT('',(-0.0200567151836968,0.00226286522666052,0.033167324885726));
#1029=CARTESIAN_POINT('',(-0.0193784296710636,0.0019465754977041,0.033167324885726));
#1030=CARTESIAN_POINT('',(-0.0510296073089318,0.0167057620198663,0.033167324885726));
#1031=CARTESIAN_POINT('',(-0.0193784296710636,0.0019465754977041,-0.00183267511427402));
#1032=CARTESIAN_POINT('',(-0.0193784296710636,0.0019465754977041,-0.00183267511427402));
#1033=CARTESIAN_POINT('',(-0.0200567151836968,0.00226286522666053,-0.00183267511427402));
#1034=CARTESIAN_POINT('',(-0.0510296073089318,0.0167057620198663,-0.00183267511427402));
#1035=CARTESIAN_POINT('',(-0.0510296073089318,0.0167057620198663,0.015667324885726));
#1036=CARTESIAN_POINT('',(-0.0250628016409873,0.00459724167908113,0.00296732488572598));
#1037=CARTESIAN_POINT('',(-0.0257534081747093,0.00491927679452754,0.00296732488572598));
#1038=CARTESIAN_POINT('',(-0.052986885296743,0.0143114114360064,0.015667324885726));
#1039=CARTESIAN_POINT('',(-0.0263294730950766,0.00188085597977488,0.028367324885726));
#1040=CARTESIAN_POINT('',(-0.0270200794441326,0.00220289100911014,0.0283667676383552));
#1041=CARTESIAN_POINT('',(-0.0493496908858075,0.0126153598279887,0.028367324885726));
#1042=CARTESIAN_POINT('',(-0.0486590845367515,0.0122933247986534,0.0283667676383552));
#1043=CARTESIAN_POINT('',(-0.0493496908858075,0.0126153598279887,0.00296732488572597));
#1044=CARTESIAN_POINT('',(-0.0486590843574224,0.0122933247150308,0.00296741961749318));
#1045=CARTESIAN_POINT('',(-0.052986885296743,0.0143114114360064,0.033167324885726));
#1046=CARTESIAN_POINT('',(-0.0522962787630211,0.01398937632056,0.033167324885726));
#1047=CARTESIAN_POINT('',(-0.023382885217863,0.000506839487203512,0.033167324885726));
#1048=CARTESIAN_POINT('',(-0.0522962787630211,0.01398937632056,0.015667324885726));
#1049=CARTESIAN_POINT('',(-0.0522962787630211,0.01398937632056,-0.00183267511427402));
#1050=CARTESIAN_POINT('',(-0.052986885296743,0.0143114114360064,-0.00183267511427402));
#1051=CARTESIAN_POINT('',(-0.023382885217863,0.000506839487203505,-0.00183267511427402));
#1052=CARTESIAN_POINT('',(-0.023382885217863,0.000506839487203511,0.033167324885726));
#1053=CARTESIAN_POINT('',(-0.0263294730950766,0.00188085597977488,0.00296732488572598));
#1054=CARTESIAN_POINT('',(-0.0270200796234617,0.00220289109273269,0.00296741961749318));
#1055=CARTESIAN_POINT('',(-0.0214256072300519,0.00290119007106335,0.015667324885726));
#1056=CARTESIAN_POINT('',(-0.0214256072300519,0.00290119007106335,0.033167324885726));
#1057=CARTESIAN_POINT('',(-0.0230143137995875,-0.000505802161964828,0.033167324885726));
#1058=CARTESIAN_POINT('',(-0.0339313042132209,-0.0239173636551382,0.0331673248857259));
#1059=CARTESIAN_POINT('',(-0.0230143137995875,-0.000505802161964831,-0.00183267511427402));
#1060=CARTESIAN_POINT('',(-0.0230143137995875,-0.00050580216196483,-0.00183267511427403));
#1061=CARTESIAN_POINT('',(-0.0214256072300519,0.00290119007106336,-0.00183267511427403));
#1062=CARTESIAN_POINT('',(-0.0339313042132209,-0.0239173636551382,-0.00183267511427403));
#1063=CARTESIAN_POINT('',(-0.0339313042132209,-0.0239173636551382,0.015667324885726));
#1064=CARTESIAN_POINT('',(-0.0467366046214415,-0.0179461540098095,0.0331673248857259));
#1065=CARTESIAN_POINT('',(-0.0311935201205108,-0.0251940133439438,0.0331673248857259));
#1066=CARTESIAN_POINT('',(-0.0190098582527882,0.000933933848535757,0.033167324885726));
#1067=CARTESIAN_POINT('',(-0.0326426781400197,-0.0283017427456925,0.0331673248857259));
#1068=CARTESIAN_POINT('',(-0.0197004647865101,0.00125596896398217,0.033167324885726));
#1069=CARTESIAN_POINT('',(-0.0513516424243782,0.0160151554861444,0.033167324885726));
#1070=CARTESIAN_POINT('',(-0.0520422489581002,0.0163371906015907,0.033167324885726));
#1071=CARTESIAN_POINT('',(-0.0523535495696984,0.0156696042856595,0.033167324885726));
#1072=CARTESIAN_POINT('',(-0.0526648501812966,0.0150020179697284,0.033167324885726));
#1073=CARTESIAN_POINT('',(-0.0519742436475746,0.0146799828542819,0.033167324885726));
#1074=CARTESIAN_POINT('',(-0.0237049203333095,-0.000183767046518414,0.033167324885726));
#1075=CARTESIAN_POINT('',(-0.0467366046214415,-0.0179461540098095,0.0331673248857259));
#1076=CARTESIAN_POINT('',(-0.0635458011008625,-0.0101078969640235,0.0331673248857259));
#1077=CARTESIAN_POINT('',(-0.0638678362163089,-0.0107985034977454,0.0331673248857259));
#1078=CARTESIAN_POINT('',(-0.0645584427500308,-0.010476468382299,0.0331673248857259));
#1079=CARTESIAN_POINT('',(-0.0642364076345844,-0.00978586184857708,0.0331673248857259));
#1080=CARTESIAN_POINT('',(-0.0656855656540933,-0.0128935912503257,0.0331673248857259));
#1081=CARTESIAN_POINT('',(-0.0649949591203713,-0.0132156263657722,0.0331673248857259));
#1082=CARTESIAN_POINT('',(-0.0653169942358178,-0.0139062328994941,0.0331673248857259));
#1083=CARTESIAN_POINT('',(-0.0485077977563968,-0.0217444899452802,0.0331673248857259));
#1084=CARTESIAN_POINT('',(-0.033655319789188,-0.028670314163968,0.0331673248857259));
#1085=CARTESIAN_POINT('',(-0.0333332846737416,-0.027979707630246,0.0331673248857259));
#1086=CARTESIAN_POINT('',(-0.0467366046214415,-0.0179461540098095,-0.00183267511427403));
#1087=CARTESIAN_POINT('',(-0.0197004647865101,0.00125596896398217,-0.00183267511427402));
#1088=CARTESIAN_POINT('',(-0.0190098582527882,0.000933933848535764,-0.00183267511427402));
#1089=CARTESIAN_POINT('',(-0.0311935201205108,-0.0251940133439438,-0.00183267511427403));
#1090=CARTESIAN_POINT('',(-0.0326426781400197,-0.0283017427456925,-0.00183267511427403));
#1091=CARTESIAN_POINT('',(-0.0333332846737416,-0.027979707630246,-0.00183267511427403));
#1092=CARTESIAN_POINT('',(-0.033655319789188,-0.028670314163968,-0.00183267511427403));
#1093=CARTESIAN_POINT('',(-0.0485077977563968,-0.0217444899452802,-0.00183267511427403));
#1094=CARTESIAN_POINT('',(-0.0653169942358178,-0.0139062328994941,-0.00183267511427403));
#1095=CARTESIAN_POINT('',(-0.0649949591203713,-0.0132156263657722,-0.00183267511427403));
#1096=CARTESIAN_POINT('',(-0.0656855656540933,-0.0128935912503257,-0.00183267511427403));
#1097=CARTESIAN_POINT('',(-0.0642364076345844,-0.00978586184857707,-0.00183267511427403));
#1098=CARTESIAN_POINT('',(-0.0645584427500308,-0.010476468382299,-0.00183267511427403));
#1099=CARTESIAN_POINT('',(-0.0638678362163089,-0.0107985034977454,-0.00183267511427403));
#1100=CARTESIAN_POINT('',(-0.0635458011008625,-0.0101078969640235,-0.00183267511427403));
#1101=CARTESIAN_POINT('',(-0.0467366046214415,-0.0179461540098095,-0.00183267511427403));
#1102=CARTESIAN_POINT('',(-0.0237049203333095,-0.000183767046518417,-0.00183267511427402));
#1103=CARTESIAN_POINT('',(-0.0519742436475746,0.0146799828542819,-0.00183267511427402));
#1104=CARTESIAN_POINT('',(-0.0526648501812966,0.0150020179697284,-0.00183267511427402));
#1105=CARTESIAN_POINT('',(-0.0523535495696984,0.0156696042856595,-0.00183267511427402));
#1106=CARTESIAN_POINT('',(-0.0520422489581002,0.0163371906015907,-0.00183267511427402));
#1107=CARTESIAN_POINT('',(-0.0513516424243782,0.0160151554861444,-0.00183267511427402));
#1108=CARTESIAN_POINT('',(-0.0508276002869452,-0.0160384914015063,0.025917324885726));
#1109=CARTESIAN_POINT('',(-0.0525987934219004,-0.0198368273369769,0.025917324885726));
#1110=CARTESIAN_POINT('',(-0.0525987934219005,-0.0198368273369769,0.028167324885726));
#1111=CARTESIAN_POINT('',(-0.0525987934219004,-0.0198368273369769,0.023667324885726));
#1112=CARTESIAN_POINT('',(-0.0508276002869451,-0.0160384914015063,0.023667324885726));
#1113=CARTESIAN_POINT('',(-0.0508276002869451,-0.0160384914015063,0.023667324885726));
#1114=CARTESIAN_POINT('',(-0.0508276002869452,-0.0160384914015063,0.025917324885726));
#1115=CARTESIAN_POINT('',(-0.0508276002869452,-0.0160384914015063,0.028167324885726));
#1116=CARTESIAN_POINT('',(-0.0508276002869452,-0.0160384914015063,0.028167324885726));
#1117=CARTESIAN_POINT('',(-0.0481086769258353,-0.0173063461867284,0.028167324885726));
#1118=CARTESIAN_POINT('',(-0.0498798700607905,-0.0211046821221989,0.028167324885726));
#1119=CARTESIAN_POINT('',(-0.0471609466996806,-0.022372536907421,0.028167324885726));
#1120=CARTESIAN_POINT('',(-0.0481086769258353,-0.0173063461867284,0.028167324885726));
#1121=CARTESIAN_POINT('',(-0.0453897535647253,-0.0185742009719504,0.028167324885726));
#1122=CARTESIAN_POINT('',(-0.0453897535647253,-0.0185742009719504,0.028167324885726));
#1123=CARTESIAN_POINT('',(-0.0453897535647253,-0.0185742009719504,0.025917324885726));
#1124=CARTESIAN_POINT('',(-0.0471609466996806,-0.022372536907421,0.025917324885726));
#1125=CARTESIAN_POINT('',(-0.0471609466996806,-0.022372536907421,0.023667324885726));
#1126=CARTESIAN_POINT('',(-0.0453897535647253,-0.0185742009719504,0.025917324885726));
#1127=CARTESIAN_POINT('',(-0.0453897535647253,-0.0185742009719504,0.023667324885726));
#1128=CARTESIAN_POINT('',(-0.0453897535647253,-0.0185742009719504,0.023667324885726));
#1129=CARTESIAN_POINT('',(-0.0431239840971336,-0.0196307466263023,0.023667324885726));
#1130=CARTESIAN_POINT('',(-0.0448951772320889,-0.0234290825617729,0.023667324885726));
#1131=CARTESIAN_POINT('',(-0.0426294077644972,-0.0244856282161246,0.023667324885726));
#1132=CARTESIAN_POINT('',(-0.0431239840971336,-0.0196307466263023,0.023667324885726));
#1133=CARTESIAN_POINT('',(-0.040858214629542,-0.020687292280654,0.023667324885726));
#1134=CARTESIAN_POINT('',(-0.040858214629542,-0.020687292280654,0.023667324885726));
#1135=CARTESIAN_POINT('',(-0.040858214629542,-0.020687292280654,0.015667324885726));
#1136=CARTESIAN_POINT('',(-0.0426294077644972,-0.0244856282161246,0.015667324885726));
#1137=CARTESIAN_POINT('',(-0.0426294077644973,-0.0244856282161246,0.00766732488572598));
#1138=CARTESIAN_POINT('',(-0.040858214629542,-0.020687292280654,0.015667324885726));
#1139=CARTESIAN_POINT('',(-0.040858214629542,-0.020687292280654,0.00766732488572598));
#1140=CARTESIAN_POINT('',(-0.040858214629542,-0.020687292280654,0.00766732488572598));
#1141=CARTESIAN_POINT('',(-0.0431239840971336,-0.0196307466263023,0.00766732488572598));
#1142=CARTESIAN_POINT('',(-0.0448951772320889,-0.0234290825617729,0.00766732488572598));
#1143=CARTESIAN_POINT('',(-0.0471609466996805,-0.0223725369074211,0.00766732488572598));
#1144=CARTESIAN_POINT('',(-0.0431239840971336,-0.0196307466263023,0.00766732488572598));
#1145=CARTESIAN_POINT('',(-0.0453897535647252,-0.0185742009719505,0.00766732488572598));
#1146=CARTESIAN_POINT('',(-0.0453897535647252,-0.0185742009719505,0.00766732488572598));
#1147=CARTESIAN_POINT('',(-0.0453897535647253,-0.0185742009719505,0.00541732488572601));
#1148=CARTESIAN_POINT('',(-0.0471609466996805,-0.0223725369074211,0.00541732488572601));
#1149=CARTESIAN_POINT('',(-0.0471609466996806,-0.022372536907421,0.00316732488572605));
#1150=CARTESIAN_POINT('',(-0.0453897535647253,-0.0185742009719505,0.00541732488572601));
#1151=CARTESIAN_POINT('',(-0.0453897535647253,-0.0185742009719504,0.00316732488572605));
#1152=CARTESIAN_POINT('',(-0.0453897535647253,-0.0185742009719504,0.00316732488572605));
#1153=CARTESIAN_POINT('',(-0.0481086769258352,-0.0173063461867284,0.00316732488572605));
#1154=CARTESIAN_POINT('',(-0.0498798700607905,-0.0211046821221989,0.00316732488572605));
#1155=CARTESIAN_POINT('',(-0.0525987934219004,-0.0198368273369769,0.00316732488572605));
#1156=CARTESIAN_POINT('',(-0.0481086769258352,-0.0173063461867284,0.00316732488572605));
#1157=CARTESIAN_POINT('',(-0.0508276002869451,-0.0160384914015063,0.00316732488572605));
#1158=CARTESIAN_POINT('',(-0.0508276002869451,-0.0160384914015063,0.00316732488572605));
#1159=CARTESIAN_POINT('',(-0.0508276002869451,-0.0160384914015063,0.00541732488572601));
#1160=CARTESIAN_POINT('',(-0.0525987934219004,-0.0198368273369769,0.00541732488572601));
#1161=CARTESIAN_POINT('',(-0.0525987934219004,-0.0198368273369769,0.00766732488572598));
#1162=CARTESIAN_POINT('',(-0.0508276002869451,-0.0160384914015063,0.00541732488572601));
#1163=CARTESIAN_POINT('',(-0.0508276002869451,-0.0160384914015063,0.00766732488572598));
#1164=CARTESIAN_POINT('',(-0.0508276002869451,-0.0160384914015063,0.00766732488572598));
#1165=CARTESIAN_POINT('',(-0.0530933697545368,-0.0149819457471545,0.00766732488572598));
#1166=CARTESIAN_POINT('',(-0.054864562889492,-0.0187802816826252,0.00766732488572598));
#1167=CARTESIAN_POINT('',(-0.0571303323570837,-0.0177237360282734,0.00766732488572598));
#1168=CARTESIAN_POINT('',(-0.0530933697545368,-0.0149819457471545,0.00766732488572598));
#1169=CARTESIAN_POINT('',(-0.0553591392221284,-0.0139254000928028,0.00766732488572598));
#1170=CARTESIAN_POINT('',(-0.0553591392221284,-0.0139254000928028,0.00766732488572598));
#1171=CARTESIAN_POINT('',(-0.0553591392221284,-0.0139254000928028,0.015667324885726));
#1172=CARTESIAN_POINT('',(-0.0571303323570837,-0.0177237360282734,0.015667324885726));
#1173=CARTESIAN_POINT('',(-0.0571303323570837,-0.0177237360282734,0.023667324885726));
#1174=CARTESIAN_POINT('',(-0.0553591392221284,-0.0139254000928028,0.015667324885726));
#1175=CARTESIAN_POINT('',(-0.0553591392221284,-0.0139254000928028,0.023667324885726));
#1176=CARTESIAN_POINT('',(-0.0553591392221284,-0.0139254000928028,0.023667324885726));
#1177=CARTESIAN_POINT('',(-0.0530933697545368,-0.0149819457471545,0.023667324885726));
#1178=CARTESIAN_POINT('',(-0.054864562889492,-0.0187802816826252,0.023667324885726));
#1179=CARTESIAN_POINT('',(-0.0530933697545368,-0.0149819457471545,0.023667324885726));
#1180=CARTESIAN_POINT('',(-0.0603438320508299,-0.011600999653229,0.029167324885726));
#1181=CARTESIAN_POINT('',(-0.0603438320508299,-0.011600999653229,0.029167324885726));
#1182=CARTESIAN_POINT('',(-0.0594375242637933,-0.0120236179149696,0.029167324885726));
#1183=CARTESIAN_POINT('',(-0.0621150251857852,-0.0153993355886995,0.029167324885726));
#1184=CARTESIAN_POINT('',(-0.0612087173987486,-0.0158219538504402,0.029167324885726));
#1185=CARTESIAN_POINT('',(-0.0603438320508299,-0.011600999653229,0.00216732488572598));
#1186=CARTESIAN_POINT('',(-0.0603438320508299,-0.011600999653229,0.00216732488572598));
#1187=CARTESIAN_POINT('',(-0.0594375242637933,-0.0120236179149696,0.00216732488572598));
#1188=CARTESIAN_POINT('',(-0.0621150251857852,-0.0153993355886995,0.00216732488572597));
#1189=CARTESIAN_POINT('',(-0.0612087173987486,-0.0158219538504402,0.00216732488572597));
#1190=CARTESIAN_POINT('',(-0.0358735218008405,-0.0230116927202278,0.029167324885726));
#1191=CARTESIAN_POINT('',(-0.0358735218008405,-0.0230116927202278,0.029167324885726));
#1192=CARTESIAN_POINT('',(-0.0349672140138038,-0.0234343109819686,0.029167324885726));
#1193=CARTESIAN_POINT('',(-0.0376447149357957,-0.0268100286556985,0.029167324885726));
#1194=CARTESIAN_POINT('',(-0.036738407148759,-0.0272326469174392,0.029167324885726));
#1195=CARTESIAN_POINT('',(-0.0358735218008405,-0.0230116927202278,0.00216732488572598));
#1196=CARTESIAN_POINT('',(-0.0358735218008405,-0.0230116927202278,0.00216732488572598));
#1197=CARTESIAN_POINT('',(-0.0349672140138038,-0.0234343109819685,0.00216732488572598));
#1198=CARTESIAN_POINT('',(-0.0376447149357957,-0.0268100286556984,0.00216732488572597));
#1199=CARTESIAN_POINT('',(-0.036738407148759,-0.0272326469174391,0.00216732488572597));
#1200=CARTESIAN_POINT('',(-0.0311935201205108,-0.0251940133439438,0.015667324885726));
#1201=CARTESIAN_POINT('',(-0.0190098582527882,0.000933933848535755,0.033167324885726));
#1202=CARTESIAN_POINT('',(-0.0326426781400197,-0.0283017427456925,-0.00183267511427403));
#1203=CARTESIAN_POINT('',(-0.0467366046214416,-0.0179461540098095,0.015667324885726));
#1204=CARTESIAN_POINT('',(-0.0635458011008625,-0.0101078969640235,0.0331673248857259));
#1205=CARTESIAN_POINT('',(-0.0485077977563968,-0.0217444899452802,0.015667324885726));
#1206=CARTESIAN_POINT('',(-0.033655319789188,-0.028670314163968,0.0331673248857259));
#1207=CARTESIAN_POINT('',(-0.0653169942358178,-0.0139062328994941,0.015667324885726));
#1208=CARTESIAN_POINT('',(-0.0523535495696984,0.0156696042856595,0.015667324885726));
#1209=CARTESIAN_POINT('',(-0.0520422489581002,0.0163371906015907,0.015667324885726));
#1210=CARTESIAN_POINT('',(-0.0526648501812966,0.0150020179697284,0.015667324885726));
#1211=CARTESIAN_POINT('',(-0.0480821741951948,0.015333558142869,0.00296732488572597));
#1212=CARTESIAN_POINT('',(-0.0480821741951948,0.015333558142869,0.028367324885726));
#1213=CARTESIAN_POINT('',(0.00473262671252141,0.0684937439827273,0.028367324885726));
#1214=CARTESIAN_POINT('',(0.00473262671252141,0.0684937439827273,0.00296732488572597));
#1215=CARTESIAN_POINT('',(-0.0642364076345844,-0.00978586184857708,0.015667324885726));
#1216=CARTESIAN_POINT('',(-0.0645584427500308,-0.010476468382299,-0.00183267511427402));
#1217=CARTESIAN_POINT('',(-0.0656855656540933,-0.0128935912503257,0.015667324885726));
#1218=CARTESIAN_POINT('',(-0.0197004647865101,0.00125596896398217,0.015667324885726));
#1219=CARTESIAN_POINT('',(-0.0513516424243782,0.0160151554861444,0.015667324885726));
#1220=CARTESIAN_POINT('',(-0.0519742436475746,0.0146799828542819,0.015667324885726));
#1221=CARTESIAN_POINT('',(-0.0237049203333095,-0.000183767046518416,0.015667324885726));
#1222=CARTESIAN_POINT('',(-0.0333332846737416,-0.027979707630246,0.015667324885726));
#1223=CARTESIAN_POINT('',(-0.0638678362163089,-0.0107985034977454,0.015667324885726));
#1224=CARTESIAN_POINT('',(-0.0649949591203713,-0.0132156263657722,0.015667324885726));
#1225=MECHANICAL_DESIGN_GEOMETRIC_PRESENTATION_REPRESENTATION('',(#738),
#1226);
#1226=(
GEOMETRIC_REPRESENTATION_CONTEXT(3)
GLOBAL_UNCERTAINTY_ASSIGNED_CONTEXT((#1227))
GLOBAL_UNIT_ASSIGNED_CONTEXT((#1230,#1229,#1228))
REPRESENTATION_CONTEXT('Part 1','TOP_LEVEL_ASSEMBLY_PART')
);
#1227=UNCERTAINTY_MEASURE_WITH_UNIT(LENGTH_MEASURE(1.E-8),#1230,
'DISTANCE_ACCURACY_VALUE','Maximum Tolerance applied to model');
#1228=(
NAMED_UNIT(*)
SI_UNIT($,.STERADIAN.)
SOLID_ANGLE_UNIT()
);
#1229=(
NAMED_UNIT(*)
PLANE_ANGLE_UNIT()
SI_UNIT($,.RADIAN.)
);
#1230=(
LENGTH_UNIT()
NAMED_UNIT(*)
SI_UNIT($,.METRE.)
);
#1231=PRODUCT_DEFINITION_SHAPE('','',#1232);
#1232=PRODUCT_DEFINITION('','',#1234,#1233);
#1233=PRODUCT_DEFINITION_CONTEXT('',#1240,'design');
#1234=PRODUCT_DEFINITION_FORMATION_WITH_SPECIFIED_SOURCE('','',#1236,
 .NOT_KNOWN.);
#1235=PRODUCT_RELATED_PRODUCT_CATEGORY('','',(#1236));
#1236=PRODUCT('Part 1','Part 1','Part 1',(#1238));
#1237=PRODUCT_CATEGORY('','');
#1238=PRODUCT_CONTEXT('',#1240,'mechanical');
#1239=APPLICATION_PROTOCOL_DEFINITION('international standard',
'ap242_managed_model_based_3d_engineering',2020,#1240);
#1240=APPLICATION_CONTEXT('managed model based 3d engineering');
ENDSEC;
END-ISO-10303-21;